HIERARCHY
ROOT Hips
{
	OFFSET -3.958830 18.904000 13.208200
	CHANNELS 6 Xposition Yposition Zposition Zrotation Yrotation Xrotation 
	JOINT LHipJoint
	{
		OFFSET 0.000000 0.000000 0.000000
		CHANNELS 3 Zrotation Yrotation Xrotation
		JOINT LeftUpLeg
		{
			OFFSET 1.800000 -1.400000 0.085000
			CHANNELS 3 Zrotation Yrotation Xrotation
			JOINT LeftLeg
			{
				OFFSET 2.215000 -6.000000 0.000000
				CHANNELS 3 Zrotation Yrotation Xrotation
				JOINT LeftFoot
				{
					OFFSET 2.500000 -6.900000 0.000000
					CHANNELS 3 Zrotation Yrotation Xrotation
					JOINT LeftToeBase
					{
						OFFSET 0.200000 -0.500000 1.950000
						CHANNELS 3 Zrotation Yrotation Xrotation
						End Site
						{
							OFFSET 0.000000 0.000000 0.000000
						}
					}
				}
			}
		}
	}
	JOINT RHipJoint
	{
		OFFSET 0.000000 0.000000 0.000000
		CHANNELS 3 Zrotation Yrotation Xrotation
		JOINT RightUpLeg
		{
			OFFSET -1.800000 -1.400000 0.085000
			CHANNELS 3 Zrotation Yrotation Xrotation
			JOINT RightLeg
			{
				OFFSET -2.215000 -6.000000 0.000000
				CHANNELS 3 Zrotation Yrotation Xrotation
				JOINT RightFoot
				{
					OFFSET -2.500000 -6.900000 0.000000
					CHANNELS 3 Zrotation Yrotation Xrotation
					JOINT RightToeBase
					{
						OFFSET -0.200000 -0.500000 1.950000
						CHANNELS 3 Zrotation Yrotation Xrotation
						End Site
						{
							OFFSET 0.000000 0.000000 0.000000
						}
					}
				}
			}
		}
	}
	JOINT LowerBack
	{
		OFFSET 0.000000 0.000000 0.000000
		CHANNELS 3 Zrotation Yrotation Xrotation
		JOINT Spine
		{
			OFFSET -0.087000 1.940000 -0.288900
			CHANNELS 3 Zrotation Yrotation Xrotation
			JOINT Spine1
			{
				OFFSET 0.000000 1.950000 0.060000
				CHANNELS 3 Zrotation Yrotation Xrotation
				JOINT Neck
				{
					OFFSET 0.000000 0.000000 0.000000
					CHANNELS 3 Zrotation Yrotation Xrotation
					JOINT Neck1
					{
						OFFSET 0.000000 1.600000 0.340000
						CHANNELS 3 Zrotation Yrotation Xrotation
						JOINT Head
						{
							OFFSET 0.000000 1.667000 -0.240000
							CHANNELS 3 Zrotation Yrotation Xrotation
							End Site
							{
								OFFSET 0.000000 0.000000 0.000000
							}
						}
					}
				}
				JOINT LeftShoulder
				{
					OFFSET 0.000000 0.000000 0.000000
					CHANNELS 3 Zrotation Yrotation Xrotation
					JOINT LeftArm
					{
						OFFSET 2.700000 1.550000 -0.730000
						CHANNELS 3 Zrotation Yrotation Xrotation
						JOINT LeftForeArm
						{
							OFFSET 5.450000 0.000000 0.000000
							CHANNELS 3 Zrotation Yrotation Xrotation
							JOINT LeftHand
							{
								OFFSET 3.450000 0.000000 0.000000
								CHANNELS 3 Zrotation Yrotation Xrotation
								JOINT LeftHandIndex1
								{
									OFFSET 0.750000 0.000000 0.000000
									CHANNELS 3 Zrotation Yrotation Xrotation
									End Site
									{
										OFFSET 0.000000 0.000000 0.000000
									}
								}
							}
						}
					}
				}
				JOINT RightShoulder
				{
					OFFSET 0.000000 0.000000 0.000000
					CHANNELS 3 Zrotation Yrotation Xrotation
					JOINT RightArm
					{
						OFFSET -2.700000 1.550000 -0.730000
						CHANNELS 3 Zrotation Yrotation Xrotation
						JOINT RightForeArm
						{
							OFFSET -5.450000 0.000000 0.000000
							CHANNELS 3 Zrotation Yrotation Xrotation
							JOINT RightHand
							{
								OFFSET -3.450000 0.000000 0.000000
								CHANNELS 3 Zrotation Yrotation Xrotation
								JOINT RightHandIndex1
								{
									OFFSET -0.750000 0.000000 0.000000
									CHANNELS 3 Zrotation Yrotation Xrotation
									End Site
									{
										OFFSET 0.000000 0.000000 0.000000
									}
								}
							}
						}
					}
				}
			}
		}
	}
}
MOTION
Frames: 7
Frame Time: 0.016667
0.306130 16.978710 -4.820130 -0.556622 20.786235 -4.258706 -15.283145 13.985541 3.496104 5.149212 1.024404 3.665983 -7.342577 5.679257 5.116513 -0.898398 5.246849 2.946045 0.012140 -0.444140 -0.170950 17.989912 -10.622106 3.222576 4.243955 3.580772 -23.616887 -1.003561 -4.385344 24.083653 -0.292155 -2.668564 3.695054 -0.165100 0.473440 0.060980 -3.589251 -2.738131 -8.569044 7.660411 -5.083969 18.040761 -6.630854 -2.726174 2.211570 4.319172 -2.507474 -16.988540 -11.374756 3.207828 67.797438 6.443280 -6.105840 -19.267880 -33.210152 -21.701364 8.705975 -56.236166 -4.114672 -12.690887 17.360369 -36.555987 -10.828390 -3.396447 2.111246 1.473230 -0.088630 0.119780 0.207690 24.979315 25.107550 12.562271 65.735036 -0.458168 -13.401418 -1.837456 21.938645 -1.621216 1.617823 -0.431338 -0.748280 0.837310 0.509390 -0.344580 
0.312460 16.987380 -4.810840 -0.776979 20.732490 -4.570960 -15.279424 13.993593 3.506893 5.399116 1.019592 3.958711 -7.478685 5.710582 4.957174 -0.897652 5.289420 2.916814 0.034090 -0.418830 -0.154290 17.999146 -10.581906 3.221919 4.531820 3.506310 -23.224002 -0.880724 -4.321100 23.036157 -0.291903 -2.556084 3.723012 -0.151220 0.451420 0.069860 -3.603600 -2.810671 -8.573167 8.071066 -5.279055 18.253630 -6.883823 -2.806556 2.823338 4.469315 -2.565378 -17.313673 -11.825266 3.494280 68.253520 6.317840 -6.009500 -20.038300 -33.439399 -22.515366 8.912217 -55.629370 -4.667066 -12.463773 18.092269 -35.471333 -10.843200 -3.389278 2.126639 1.485550 -0.102790 0.137960 0.202560 24.907578 25.935452 12.847540 65.577168 -0.248956 -13.548999 -1.670830 22.323605 -1.655849 1.608069 -0.435709 -0.737320 0.831590 0.506640 -0.349370 
0.326710 16.988940 -4.781910 -1.033958 20.703283 -4.540292 -15.278157 13.985669 3.509063 5.646315 0.991630 4.129029 -7.832309 5.775997 4.760138 -0.896247 5.362635 2.892119 0.022570 -0.434760 -0.161430 18.015903 -10.502689 3.235678 5.008764 3.444854 -23.045143 -0.735197 -4.160338 21.036399 -0.257872 -2.348273 3.796005 -0.155370 0.459130 0.076760 -3.618572 -2.921733 -8.576760 8.548513 -5.619855 18.157376 -7.193543 -3.089450 3.265852 4.639317 -2.591790 -17.370765 -12.184160 3.695528 67.643709 5.846930 -5.853130 -20.173380 -33.045511 -22.931424 8.987140 -55.831144 -5.495792 -12.076879 19.379210 -34.180431 -10.992312 -3.414017 2.124526 1.487740 -0.095380 0.132730 0.196840 24.139046 26.188190 12.909416 66.235318 0.157796 -13.935327 -1.549900 23.120716 -1.784746 1.595886 -0.435724 -0.743800 0.833390 0.521400 -0.352530 
0.343910 16.989890 -4.746270 -1.257689 20.661957 -4.623583 -15.265273 13.959393 3.519720 5.855008 1.004365 4.632617 -8.255358 5.859759 4.441942 -0.869859 5.444141 2.862957 0.019400 -0.432800 -0.167820 18.047167 -10.423651 3.246257 5.440810 3.326453 -22.728689 -0.402125 -4.006744 18.558440 -0.231580 -2.113795 3.882937 -0.158960 0.459460 0.079880 -3.671542 -3.007212 -8.579484 9.096426 -6.206376 18.430694 -7.716776 -3.554069 3.687688 4.685982 -2.883943 -17.534894 -13.123781 4.250753 67.007546 6.308190 -5.686150 -21.258550 -32.394282 -23.386109 9.186672 -55.973405 -6.020521 -12.095482 20.399887 -34.050493 -11.356099 -3.412498 2.122841 1.494170 -0.101850 0.140170 0.193880 23.340825 26.625712 13.011957 66.763826 0.767444 -14.281295 -1.187106 23.939658 -1.871248 1.591615 -0.426393 -0.740030 0.838120 0.527580 -0.348850 
0.367360 16.990130 -4.696700 -1.503032 20.781411 -4.522482 -15.260021 13.920867 3.509405 5.985460 1.009847 5.101523 -8.673776 5.976404 4.293817 -0.847226 5.551967 2.828135 -0.002710 -0.456030 -0.187970 18.081489 -10.304095 3.282249 6.135799 3.258150 -22.397906 -0.026307 -3.780441 15.365605 -0.184806 -1.878209 3.972487 -0.167730 0.483480 0.088120 -3.715463 -3.123849 -8.589993 9.652828 -6.724169 18.097611 -8.175660 -4.018652 4.467120 4.738846 -2.879463 -17.643340 -13.417503 4.449192 65.988484 6.339850 -5.663610 -20.876360 -31.997985 -24.113862 9.390965 -55.705498 -6.986350 -11.537753 21.433570 -32.351579 -11.272245 -3.452571 2.136882 1.476160 -0.081590 0.122040 0.186360 22.760902 27.012204 13.140096 66.924110 1.099386 -14.644873 -0.525725 24.958735 -1.942206 1.581270 -0.430120 -0.741890 0.838040 0.549040 -0.342800 
0.392810 16.982550 -4.641390 -1.555439 20.735010 -4.294843 -15.262728 13.872591 3.492656 5.934608 1.028693 5.536032 -9.503621 6.220070 4.570687 -0.819428 5.703031 2.789979 -0.022970 -0.478310 -0.221380 18.111841 -10.169224 3.326081 6.714290 3.228238 -22.163912 0.718652 -3.618749 12.127267 -0.151447 -1.708335 4.050953 -0.175520 0.524320 0.100180 -3.732584 -3.254371 -8.601587 9.928393 -7.145765 17.803517 -8.466606 -4.437838 5.216695 4.697378 -2.974412 -17.705155 -13.932093 4.663164 64.475284 6.344740 -5.660390 -20.591410 -30.919114 -24.775648 9.553437 -55.960184 -8.153391 -10.933315 22.334479 -30.895949 -11.229525 -3.489182 2.145707 1.464480 -0.053500 0.102260 0.198880 21.728770 27.373543 13.216246 67.622031 1.680154 -15.064089 -0.262782 25.898989 -2.093542 1.560680 -0.441641 -0.750540 0.847740 0.565970 -0.331110 
0.413440 16.972650 -4.577330 -1.120702 20.516097 -3.688979 -15.297438 13.838757 3.500514 5.559863 1.073932 5.835003 -10.317494 6.412207 4.707579 -0.793716 5.816372 2.756851 -0.045210 -0.511960 -0.230580 18.104121 -10.048610 3.361231 7.014363 3.175306 -22.163104 1.142867 -3.409871 9.258237 -0.122562 -1.581090 4.100782 -0.190960 0.539820 0.110240 -3.641733 -3.401176 -8.638571 9.130889 -7.225423 17.531738 -8.473756 -4.693540 5.347463 4.729931 -2.736931 -17.451241 -13.500194 4.474817 62.925275 5.926120 -5.337800 -20.390410 -29.779226 -24.627386 9.367162 -56.386573 -9.120717 -10.105924 22.795917 -29.187403 -10.878218 -3.527679 2.160303 1.455620 -0.035330 0.085130 0.192740 20.534658 26.781000 13.009442 68.905286 2.084768 -15.560465 0.333341 26.975183 -2.206722 1.559151 -0.453858 -0.758290 0.836400 0.578880 -0.335380 
